<?xml version="1.0" encoding="UTF-8" standalone="no"?>
<!-- Created with Inkscape (http://www.inkscape.org/) -->

<svg
   width="1000"
   height="1000"
   viewBox="0 0 1000 1000"
   version="1.1"
   id="svg1"
   inkscape:version="1.4 (e7c3feb100, 2024-10-09)"
   sodipodi:docname="helpme_logomark.svg"
   xmlns:inkscape="http://www.inkscape.org/namespaces/inkscape"
   xmlns:sodipodi="http://sodipodi.sourceforge.net/DTD/sodipodi-0.dtd"
   xmlns="http://www.w3.org/2000/svg"
   xmlns:svg="http://www.w3.org/2000/svg"
   xmlns:rdf="http://www.w3.org/1999/02/22-rdf-syntax-ns#"
   xmlns:cc="http://creativecommons.org/ns#"
   xmlns:dc="http://purl.org/dc/elements/1.1/">
  <title
     id="title1">helpme Logomark</title>
  <sodipodi:namedview
     id="namedview1"
     pagecolor="#ffffff"
     bordercolor="#000000"
     borderopacity="0.25"
     inkscape:showpageshadow="2"
     inkscape:pageopacity="0.0"
     inkscape:pagecheckerboard="0"
     inkscape:deskcolor="#d1d1d1"
     inkscape:document-units="px"
     showguides="true"
     inkscape:zoom="0.55307695"
     inkscape:cx="531.5716"
     inkscape:cy="550.5563"
     inkscape:window-width="2752"
     inkscape:window-height="1124"
     inkscape:window-x="0"
     inkscape:window-y="0"
     inkscape:window-maximized="1"
     inkscape:current-layer="g13" />
  <defs
     id="defs1" />
  <g
     inkscape:label="Layer 2"
     inkscape:groupmode="layer"
     id="g13"
     style="display:inline"
     transform="translate(0,-2.0077499e-5)">
    <path
       id="circle7"
       style="display:inline;fill:#0077ff;fill-opacity:1;stroke:none;stroke-width:1;stroke-linejoin:bevel;stroke-dasharray:none;stroke-opacity:1"
       d="M 508.41602,2.00775e-5 C 526.04245,19.788747 542.95346,40.109063 558.32812,61.463235 a 50,50.0432 0 0 1 16.73438,-3.014321 50,50.0432 0 0 1 39.13281,18.914765 c 29.91074,-12.51993 60.4357,-23.562092 91.44922,-33.132116 A 500,500.432 0 0 0 508.41602,2.00775e-5 Z M 475.88672,1.5189094 A 500,500.432 0 0 0 108.17383,191.16504 c 23.21967,60.17531 50.62089,118.71091 83.09375,174.60581 a 50,50.0432 0 0 1 14.19922,-2.07014 50,50.0432 0 0 1 19.84961,4.12465 c 21.17247,-25.962 43.68941,-50.97953 67.57617,-74.88691 69.56796,-69.62807 148.36695,-127.87381 233.4707,-173.68118 A 50,50.0432 0 0 1 525.0625,108.49212 50,50.0432 0 0 1 537.58008,75.414732 C 518.87305,49.495027 498.04952,24.984569 475.88672,1.5189094 Z M 739.82227,61.220838 C 700.59699,72.114272 661.85641,84.544815 624.35742,100.21544 a 50,50.0432 0 0 1 0.70508,8.27668 50,50.0432 0 0 1 -14.96484,35.5248 C 668.53835,252.51111 700,374.73486 700,500.22481 c 0,94.79546 -18.11209,187.66841 -52.06836,274.23479 a 50,50.0432 0 0 1 19.54102,39.669 50,50.0432 0 0 1 -1.75586,12.85681 c 46.06226,25.02134 93.70533,46.90766 142.51758,65.82244 A 500,500.432 0 0 0 1000,500.22481 500,500.432 0 0 0 739.82227,61.220838 Z M 537.625,141.61641 c -82.75069,44.6142 -159.38295,101.28484 -227.05469,169.01504 -23.15005,23.17008 -44.99201,47.40165 -65.52734,72.55091 a 50,50.0432 0 0 1 10.42383,30.56155 50,50.0432 0 0 1 -12.6211,33.17903 c 41.60866,60.19976 88.51363,117.12646 140.94922,169.60735 61.08217,61.13495 128.08983,114.90568 199.45508,161.2603 a 50,50.0432 0 0 1 34.22266,-13.70519 50,50.0432 0 0 1 7.45507,0.56103 C 657.58085,681.15832 675,591.61995 675,500.22481 675,379.20539 644.75294,261.33086 588.52344,156.64501 A 50,50.0432 0 0 1 575.0625,158.53532 50,50.0432 0 0 1 537.625,141.61641 Z M 90.521484,214.76745 A 500,500.432 0 0 0 0,500.22481 500,500.432 0 0 0 44.443359,706.12325 C 72.7393,614.1964 114.04822,526.59776 167.4707,446.23484 a 50,50.0432 0 0 1 -12.0039,-32.49093 50,50.0432 0 0 1 14.42773,-34.98919 C 139.28658,326.11467 113.10016,271.16971 90.521484,214.76745 Z M 188.02344,460.50693 C 131.34567,545.85702 89.039815,639.66684 61.537109,738.08444 A 500,500.432 0 0 0 476.02734,998.94049 c 42.38205,-44.82387 78.77827,-94.30888 108.18555,-147.5082 a 50,50.0432 0 0 1 -16.74023,-37.30369 50,50.0432 0 0 1 2.43359,-15.19084 C 496.9857,751.59945 428.51882,696.67885 366.11719,634.2233 312.5159,580.57571 264.57239,522.37657 222.05859,460.82361 a 50,50.0432 0 0 1 -16.59179,2.9635 50,50.0432 0 0 1 -17.44336,-3.28018 z M 653.41016,848.7542 a 50,50.0432 0 0 1 -35.9375,15.4176 50,50.0432 0 0 1 -10.98438,-1.35078 c -26.99566,48.96536 -59.67945,94.9237 -97.32031,137.17896 A 500,500.432 0 0 0 784.83008,910.34447 C 739.93133,892.30212 695.98131,871.89827 653.41016,848.7542 Z"
       inkscape:export-filename="circle7.svg"
       inkscape:export-xdpi="96"
       inkscape:export-ydpi="96" />
  </g>
  <metadata
     id="metadata1">
    <rdf:RDF>
      <cc:Work
         rdf:about="">
        <dc:title>helpme Logomark</dc:title>
        <dc:creator>
          <cc:Agent>
            <dc:title>Antonio Carlos de Lisboa and Kenedy de Paula Kaefer</dc:title>
          </cc:Agent>
        </dc:creator>
        <dc:rights>
          <cc:Agent>
            <dc:title>Copyright (C) 2024 helpme. All rights reserved.</dc:title>
          </cc:Agent>
        </dc:rights>
        <dc:subject>
          <rdf:Bag>
            <rdf:li>Logomark</rdf:li>
            <rdf:li>Visual identity</rdf:li>
            <rdf:li>helpme</rdf:li>
            <rdf:li>Graphic design</rdf:li>
            <rdf:li>Branding</rdf:li>
          </rdf:Bag>
        </dc:subject>
        <dc:coverage>Global</dc:coverage>
        <dc:publisher>
          <cc:Agent>
            <dc:title>helpme</dc:title>
          </cc:Agent>
        </dc:publisher>
      </cc:Work>
    </rdf:RDF>
  </metadata>
</svg>
